<?xml version="1.0" encoding="UTF-8" standalone="no"?>
<!-- Created with Inkscape (http://www.inkscape.org/) -->

<svg
   xmlns:dc="http://purl.org/dc/elements/1.1/"
   xmlns:cc="http://creativecommons.org/ns#"
   xmlns:rdf="http://www.w3.org/1999/02/22-rdf-syntax-ns#"
   xmlns:svg="http://www.w3.org/2000/svg"
   xmlns="http://www.w3.org/2000/svg"
   xmlns:sodipodi="http://sodipodi.sourceforge.net/DTD/sodipodi-0.dtd"
   xmlns:inkscape="http://www.inkscape.org/namespaces/inkscape"
   width="7.3600101mm"
   height="7.3600101mm"
   viewBox="0 0 26.078776 26.078776"
   id="svg2"
   version="1.1"
   inkscape:version="0.91 r13725"
   sodipodi:docname="icon.svg">
  <defs
     id="defs4" />
  <sodipodi:namedview
     id="base"
     pagecolor="#ffffff"
     bordercolor="#666666"
     borderopacity="1.0"
     inkscape:pageopacity="0"
     inkscape:pageshadow="2"
     inkscape:zoom="11.2"
     inkscape:cx="20.362101"
     inkscape:cy="14.216634"
     inkscape:document-units="px"
     inkscape:current-layer="svg2"
     showgrid="false"
     fit-margin-top="0"
     fit-margin-left="0"
     fit-margin-right="0"
     fit-margin-bottom="0"
     inkscape:window-width="1920"
     inkscape:window-height="1017"
     inkscape:window-x="-8"
     inkscape:window-y="-8"
     inkscape:window-maximized="1" />
  <metadata
     id="metadata7">
    <rdf:RDF>
      <cc:Work
         rdf:about="">
        <dc:format>image/svg+xml</dc:format>
        <dc:type
           rdf:resource="http://purl.org/dc/dcmitype/StillImage" />
        <dc:title></dc:title>
      </cc:Work>
    </rdf:RDF>
  </metadata>
  <path
     inkscape:connector-curvature="0"
     id="path3347"
     d="m 12.937837,25.777738 c -0.56579,-0.32083 -0.70421,-0.57505 -0.70779,-1.29994 -0.004,-0.9046 0.56224,-1.30968 2.0989,-1.50025 1.41847,-0.17592 1.61441,-0.25054 2.31572,-0.88189 l 0.45701,-0.41142 0,-8.55176 c 0,-7.5774497 -0.0377,-8.6056397 -0.33122,-9.0246397 -0.44081,-0.62936 -1.47547,-1.03931 -2.62304,-1.03931 -0.76886,0 -1.0448,-0.10864 -1.54403,-0.60788 -0.46316,-0.46315 -0.57461,-0.71702 -0.46814,-1.06635 0.19752,-0.64806 0.64986,-1.11249 1.22383,-1.25655 0.79344,-0.19914 3.13961,0.26839 4.17516,0.83201006 l 0.95568,0.52014994 1.09568,-0.53606994 c 1.21989,-0.59683006 3.37043,-1.01682006 4.23466,-0.82700006 0.60569,0.13303 1.20288,0.86505006 1.20288,1.47444 0,0.20629 -0.17877,0.56697 -0.39727,0.8015 -0.40046,0.42984 -0.74611,0.53628 -2.48281,0.76454 -0.52278,0.0687 -1.18544,0.30973 -1.47258,0.53559 -0.47698,0.37519 -0.52208,0.54101 -0.52208,1.91929 l 0,1.50861 2.62598,0 c 2.11643,0 2.68791,0.0619 2.94516,0.31918 0.47898,0.47899 0.47898,10.6632897 0,11.1422797 -0.25736,0.25735 -0.82951,0.31918 -2.95371,0.31918 l -2.63452,0 0.0593,1.5531 c 0.053,1.38752 0.11377,1.59364 0.56999,1.93348 0.28087,0.20921 1.01208,0.43186 1.62492,0.49476 1.55785,0.15991 2.15885,0.43106 2.43542,1.09877 0.32667,0.78864 -0.0903,1.63879 -0.91495,1.86545 -0.87524,0.24058 -3.20726,-0.16291 -4.38193,-0.75816 l -1.0006,-0.50704 -0.99284,0.50311 c -0.54606,0.27672 -1.57433,0.59747 -2.28504,0.71279 -1.60125,0.25983 -1.80131,0.25723 -2.30776,-0.03 z m 11.06973,-12.75661 0,-4.0622897 -1.92959,0 -1.92958,0 0,4.0622897 0,4.06229 1.92958,0 1.92959,0 0,-4.06229 z m -23.64832029,5.57114 c -0.47899,-0.47899 -0.47899,-10.6632897 0,-11.1422797 0.27815,-0.27815 1.24418999,-0.31918 7.51522999,-0.31918 l 7.1960603,0 0,0.91402 0,0.91401 -6.4996603,0 -6.49967,0 0,4.0622897 0,4.06229 6.49967,0 6.4996603,0 0,0.91402 0,0.91401 -7.1960603,0 c -6.27104,0 -7.23707999,-0.041 -7.51522999,-0.31918 z m 3.74310999,-5.57114 0,-2.03114 4.46852,0 4.4685103,0 0,2.03114 0,2.03115 -4.4685103,0 -4.46852,0 0,-2.03115 z"
     style="fill:#000000" />
</svg>
