<?xml version="1.0" encoding="UTF-8" standalone="no"?>
<!-- Created with Inkscape (http://www.inkscape.org/) -->

<svg
   xmlns:dc="http://purl.org/dc/elements/1.1/"
   xmlns:cc="http://creativecommons.org/ns#"
   xmlns:rdf="http://www.w3.org/1999/02/22-rdf-syntax-ns#"
   xmlns:svg="http://www.w3.org/2000/svg"
   xmlns="http://www.w3.org/2000/svg"
   xmlns:sodipodi="http://sodipodi.sourceforge.net/DTD/sodipodi-0.dtd"
   xmlns:inkscape="http://www.inkscape.org/namespaces/inkscape"
   width="1240"
   height="600"
   viewBox="0 0 1240 600.00002"
   id="svg2"
   version="1.1"
   inkscape:version="0.91 r13725"
   sodipodi:docname="large_icon.svg"
   inkscape:export-filename="C:\Users\MiniDfx\Git\BulkRename\Solution\App\Assets\Square150x150Logo.scale-200.png"
   inkscape:export-xdpi="1035.3199"
   inkscape:export-ydpi="1035.3199">
  <defs
     id="defs4" />
  <sodipodi:namedview
     id="base"
     pagecolor="#ffffff"
     bordercolor="#666666"
     borderopacity="1.0"
     inkscape:pageopacity="0"
     inkscape:pageshadow="2"
     inkscape:zoom="0.7"
     inkscape:cx="615.03984"
     inkscape:cy="229.79468"
     inkscape:document-units="px"
     inkscape:current-layer="svg2"
     showgrid="false"
     fit-margin-top="0"
     fit-margin-left="0"
     fit-margin-right="0"
     fit-margin-bottom="0"
     inkscape:window-width="1920"
     inkscape:window-height="1017"
     inkscape:window-x="-8"
     inkscape:window-y="-8"
     inkscape:window-maximized="1"
     units="px"
     inkscape:snap-text-baseline="false"
     showguides="true"
     inkscape:guide-bbox="true">
    <sodipodi:guide
       position="604.28571,444.28573"
       orientation="1,0"
       id="guide3380" />
  </sodipodi:namedview>
  <metadata
     id="metadata7">
    <rdf:RDF>
      <cc:Work
         rdf:about="">
        <dc:format>image/svg+xml</dc:format>
        <dc:type
           rdf:resource="http://purl.org/dc/dcmitype/StillImage" />
        <dc:title></dc:title>
      </cc:Work>
    </rdf:RDF>
  </metadata>
  <path
     inkscape:connector-curvature="0"
     id="path3347"
     d="m 292.02607,547.60494 c -10.99769,-6.23564 -13.68828,-11.17672 -13.75786,-25.26716 -0.0778,-17.58341 10.9287,-25.45764 40.79794,-29.16248 27.57188,-3.4191 31.38052,-4.86915 45.01242,-17.14217 l 8.88326,-7.9967 0,-166.22597 c 0,-147.28967 -0.73281,-167.2756 -6.43818,-175.42001 -8.56836,-12.2322 -28.67984,-20.20169 -50.98605,-20.20169 -14.94492,0 -20.30858,-2.11093 -30.01249,-11.816207 -9.00279,-9.00164 -11.16914,-13.93688 -9.0996,-20.7265 3.83935,-12.597619 12.63183,-21.624516 23.78853,-24.425495 15.4227,-3.870061 61.02702,5.217087 81.15579,16.172215 l 18.57629,10.11154 21.29757,-10.420601 c 23.71195,-11.60046 65.51364,-19.764323 82.31234,-16.075032 11.77326,2.585221 23.38131,16.815613 23.38131,28.660993 0,4.00807 -3.4749,11.01927 -7.72205,15.57937 -7.78405,8.354357 -14.50272,10.422527 -48.26029,14.860177 -10.16166,1.3412 -23.04231,6.01987 -28.62366,10.41086 -9.27143,7.29305 -10.14807,10.51584 -10.14807,37.30692 l 0,29.32382 51.04319,0 c 41.13868,0 52.24697,1.20514 57.24733,6.20453 9.31031,9.3107 9.31031,207.27075 0,216.5795 -5.0025,5.00328 -16.12381,6.20454 -57.41353,6.20454 l -51.20918,0 1.15266,30.1888 c 1.0302,26.9699 2.21142,30.97796 11.07933,37.58293 5.45948,4.06638 19.67258,8.39517 31.58481,9.6178 30.28113,3.10811 41.96323,8.37769 47.33913,21.35628 6.34975,15.33057 -1.75523,31.85462 -17.78458,36.26116 -17.01271,4.67672 -62.34198,-3.16642 -85.17493,-14.73772 l -19.44945,-9.85495 -19.29859,9.77915 c -10.61418,5.37842 -30.60146,11.61406 -44.41608,13.85523 -31.12472,5.04994 -35.01344,4.9994 -44.85769,-0.58313 z m 215.17085,-247.95984 0,-78.96205 -37.50693,0 -37.50672,0 0,78.96205 0,78.96205 37.50672,0 37.50693,0 0,-78.96205 z M 47.52635,407.93485 c -9.3105,-9.30875 -9.3105,-207.2688 0,-216.5795 5.40661,-5.40758 24.18428,-6.20453 146.07931,-6.20453 l 139.87534,0 0,17.76612 0,17.76611 -126.33889,0 -126.33908,0 0,78.96205 0,78.96205 126.33908,0 126.33889,0 0,17.76611 0,17.76613 -139.87534,0 c -121.89503,0 -140.6727,-0.79695 -146.07931,-6.20454 z m 72.7577,-108.28975 0,-39.48005 86.85806,0 86.85787,0 0,39.48005 0,39.482 -86.85787,0 -86.85806,0 0,-39.482 z"
     style="fill:#000000" />
  <text
     xml:space="preserve"
     style="font-style:normal;font-weight:normal;font-size:295.07049561px;line-height:125%;font-family:sans-serif;letter-spacing:0px;word-spacing:0px;fill:#000000;fill-opacity:1;stroke:none;stroke-width:1px;stroke-linecap:butt;stroke-linejoin:miter;stroke-opacity:1"
     x="578.81036"
     y="289.01031"
     id="text3350"
     sodipodi:linespacing="125%"><tspan
       sodipodi:role="line"
       id="tspan3352"
       x="578.81036"
       y="289.01031"
       style="font-size:263.27722168px">Bulk</tspan></text>
  <text
     xml:space="preserve"
     style="font-style:normal;font-weight:normal;font-size:58.21186066px;line-height:125%;font-family:sans-serif;letter-spacing:0px;word-spacing:0px;fill:#000000;fill-opacity:1;stroke:none;stroke-width:1px;stroke-linecap:butt;stroke-linejoin:miter;stroke-opacity:1"
     x="601.59521"
     y="477.81161"
     id="text3376"
     sodipodi:linespacing="125%"><tspan
       sodipodi:role="line"
       id="tspan3378"
       x="601.59521"
       y="477.81161"
       style="font-size:130.97666931px">renaming</tspan></text>
</svg>
